<svg width="400" height="400" xmlns="http://www.w3.org/2000/svg" version="1.1"><g><title>Layer 1</title><g id="svg_6"><g id="svg_8"><path d="m259.5,78l0,22.857l39.17711,-22.6934l40.63955,0l-0.00066,168.7934l-40,-16.633l-0.00016,-106.58745l-39.81584,23.06245l0,102.424l-40,-16.628l0,-114.595l-104.72026,0c-8.43877,0 -15.27974,6.84097 -15.27974,15.27974l0,108.10626l-40,-16.629l0,-116.19751c0,-16.87754 13.68195,-30.55949 30.55949,-30.55949l169.44051,0z" id="svg_10" fill="#5A00FF"/><ellipse id="svg_9" fill="#04FFAA" cx="136.63384" cy="154.58893" rx="20" ry="20.04462"/></g><g id="LOGO_Monibuca文字" fill="#263036"><path id="svg_2" d="m152.55535,310.4315l-23.03933,-24.4315l-7.85825,0l0,35.62414l7.82329,0l0,-24.30196l23.27116,24.67782l7.62642,0l0,-36l-7.82329,0l0,24.4315zm-101.84337,-24.4315l-13.16667,21.56721l-14.40287,-21.56721l-8.64244,0l0.29883,36l7.72416,-0.06724l-0.19347,-23.18088l15.50735,23.21865l13.77523,-22.56471l0.18802,22.59418l7.72415,-0.06724l-0.29883,-35.93276l-8.51346,0zm52.93608,24.8451c0,2.18115 -1.72084,3.9549 -3.83491,3.9549l-15.7428,0c-2.11498,0 -3.83491,-1.77375 -3.83491,-3.9549l0,-12.79113c0,-2.18022 1.71993,-3.95397 3.83491,-3.95397l15.7428,0c2.11407,0 3.83491,1.77375 3.83491,3.95397l0,12.79113zm-2.80369,-24.8451l-18.70573,0c-5.63686,0.74862 -10.00757,5.66891 -10.00757,11.62109l0,12.64746c0,6.46903 5.15653,11.73145 11.49541,11.73145l15.73005,0c6.33798,0 11.49541,-5.26242 11.49541,-11.73145l0,-12.64746c0,-5.95218 -4.37161,-10.87247 -10.00757,-11.62109l0,0zm69.43961,36l8.10342,0l0.00095,-36l-8.10342,0l-0.00095,36zm49.8447,-36l-32.73548,0l0,7.686l31.10231,0c1.93044,0 3.56001,1.33031 3.56001,2.90499c0,1.5756 -1.62957,2.90591 -3.56001,2.90591l-31.10231,0l0,0.0689l0,7.74388l0,0.06891l30.56273,0c2.26013,0 4.09959,1.52691 4.09959,3.40477c0,1.87694 -1.83946,3.40385 -4.09959,3.40385l-30.56273,0l0,7.81279l30.56273,0c6.48494,0 11.76009,-5.0309 11.76009,-11.21664c0,-2.73411 -1.03323,-5.24129 -2.74477,-7.18989c1.70523,-1.8797 2.74477,-4.32533 2.74477,-7.00248c0,-5.37818 -4.17346,-9.83121 -9.58734,-10.59099l0,0zm143.61587,0l-9.09154,0l-17.77922,36l8.69594,0l13.86265,-28.06964l16.96139,28.06964l9.10623,0l-21.75545,-36zm-75.49698,17.89528c0,9.98286 7.93258,18.10472 17.68277,18.10472l21.03811,0l0,-7.81139l-21.03811,0c-5.54257,0 -10.05343,-4.61758 -10.05343,-10.29333c0,-5.67575 4.51086,-10.2924 10.05343,-10.2924l21.03811,0l0,-7.60288l-23.57524,0c-8.54891,1.26669 -15.14564,8.79792 -15.14564,17.89528l0,0zm-13.31712,5.66871c0,2.12072 -1.77568,3.84534 -3.95711,3.84534l-20.38115,0c-2.18143,0 -3.9571,-1.72462 -3.9571,-3.84534l0,-23.56399l-7.91422,0l0,23.56399c0,6.36127 5.32609,11.53601 11.87132,11.53601l20.38115,0c6.54523,0 11.87132,-5.17474 11.87132,-11.53601l0,-23.56399l-7.91421,0l0,23.56399z"/></g></g></g></svg>